<mxfile host="app.diagrams.net" modified="2021-01-05T17:39:31.011Z" agent="5.0 (Windows NT 10.0; Win64; x64) AppleWebKit/537.36 (KHTML, like Gecko) Chrome/87.0.4280.88 Safari/537.36" etag="y3FuIOvf8gGAYETv1e4v" version="14.1.8" type="github">
  <diagram name="Page-1" id="74e2e168-ea6b-b213-b513-2b3c1d86103e">
    <mxGraphModel dx="630" dy="967" grid="1" gridSize="10" guides="1" tooltips="1" connect="1" arrows="1" fold="1" page="1" pageScale="1" pageWidth="1100" pageHeight="850" background="#ffffff" math="0" shadow="0">
      <root>
        <mxCell id="0" />
        <mxCell id="1" parent="0" />
        <mxCell id="WjE6YeE4hNztgwnNVIQz-1" value="Frontend (Templates)" style="swimlane;html=1;startSize=20;fillColor=#e51400;strokeColor=#B20000;fontColor=#ffffff;" parent="1" vertex="1">
          <mxGeometry x="1280" y="80" width="200" height="330" as="geometry" />
        </mxCell>
        <mxCell id="eFxH_JPGxiCkRKmAVD67-1" value="rogin.html" style="shape=note;whiteSpace=wrap;html=1;backgroundOutline=1;darkOpacity=0.05;" parent="WjE6YeE4hNztgwnNVIQz-1" vertex="1">
          <mxGeometry x="60" y="60" width="80" height="100" as="geometry" />
        </mxCell>
        <mxCell id="eFxH_JPGxiCkRKmAVD67-6" value="result.html" style="shape=note;whiteSpace=wrap;html=1;backgroundOutline=1;darkOpacity=0.05;" parent="WjE6YeE4hNztgwnNVIQz-1" vertex="1">
          <mxGeometry x="60" y="200" width="80" height="100" as="geometry" />
        </mxCell>
        <mxCell id="eFxH_JPGxiCkRKmAVD67-3" value="Backend" style="swimlane;html=1;startSize=20;" parent="1" vertex="1">
          <mxGeometry x="1520" y="81" width="750" height="720" as="geometry" />
        </mxCell>
        <mxCell id="eFxH_JPGxiCkRKmAVD67-8" value="views.py" style="swimlane;html=1;startSize=20;" parent="eFxH_JPGxiCkRKmAVD67-3" vertex="1">
          <mxGeometry x="40" y="140" width="670" height="326" as="geometry" />
        </mxCell>
        <mxCell id="eFxH_JPGxiCkRKmAVD67-29" value="&lt;b&gt;f_rogin&lt;/b&gt;" style="swimlane;html=1;fontStyle=0;childLayout=stackLayout;horizontal=1;startSize=26;fillColor=#e0e0e0;horizontalStack=0;resizeParent=1;resizeLast=0;collapsible=1;marginBottom=0;swimlaneFillColor=#ffffff;align=center;rounded=1;shadow=0;comic=0;labelBackgroundColor=none;strokeWidth=1;fontFamily=Verdana;fontSize=12" parent="eFxH_JPGxiCkRKmAVD67-8" vertex="1">
          <mxGeometry x="60" y="80" width="180" height="70" as="geometry" />
        </mxCell>
        <mxCell id="eFxH_JPGxiCkRKmAVD67-30" value="input user ID/PW&lt;br&gt;Call Selenium" style="text;html=1;strokeColor=none;fillColor=none;spacingLeft=4;spacingRight=4;whiteSpace=wrap;overflow=hidden;rotatable=0;points=[[0,0.5],[1,0.5]];portConstraint=eastwest;align=center;" parent="eFxH_JPGxiCkRKmAVD67-29" vertex="1">
          <mxGeometry y="26" width="180" height="34" as="geometry" />
        </mxCell>
        <mxCell id="eFxH_JPGxiCkRKmAVD67-58" value="" style="endArrow=classic;startArrow=classic;html=1;shadow=0;fillColor=#ffffff;exitX=0.5;exitY=1;exitDx=0;exitDy=0;entryX=0.5;entryY=0;entryDx=0;entryDy=0;" parent="eFxH_JPGxiCkRKmAVD67-8" source="eFxH_JPGxiCkRKmAVD67-29" target="eFxH_JPGxiCkRKmAVD67-40" edge="1">
          <mxGeometry width="50" height="50" relative="1" as="geometry">
            <mxPoint x="190" y="280" as="sourcePoint" />
            <mxPoint x="240" y="230" as="targetPoint" />
          </mxGeometry>
        </mxCell>
        <mxCell id="eFxH_JPGxiCkRKmAVD67-68" value="" style="group" parent="eFxH_JPGxiCkRKmAVD67-8" vertex="1" connectable="0">
          <mxGeometry x="60" y="190" width="180" height="60" as="geometry" />
        </mxCell>
        <mxCell id="eFxH_JPGxiCkRKmAVD67-87" style="edgeStyle=orthogonalEdgeStyle;rounded=0;sketch=0;orthogonalLoop=1;jettySize=auto;html=1;exitX=0.25;exitY=1;exitDx=0;exitDy=0;entryX=0.222;entryY=1.158;entryDx=0;entryDy=0;entryPerimeter=0;shadow=0;fillColor=#ffffff;" parent="eFxH_JPGxiCkRKmAVD67-68" source="eFxH_JPGxiCkRKmAVD67-40" target="eFxH_JPGxiCkRKmAVD67-41" edge="1">
          <mxGeometry relative="1" as="geometry" />
        </mxCell>
        <mxCell id="eFxH_JPGxiCkRKmAVD67-40" value="&lt;b&gt;selenium function&lt;/b&gt;" style="swimlane;html=1;fontStyle=0;childLayout=stackLayout;horizontal=1;startSize=26;fillColor=#e0e0e0;horizontalStack=0;resizeParent=1;resizeLast=0;collapsible=1;marginBottom=0;swimlaneFillColor=#ffffff;align=center;rounded=1;shadow=0;comic=0;labelBackgroundColor=none;strokeWidth=1;fontFamily=Verdana;fontSize=12" parent="eFxH_JPGxiCkRKmAVD67-68" vertex="1">
          <mxGeometry width="180" height="60" as="geometry" />
        </mxCell>
        <mxCell id="eFxH_JPGxiCkRKmAVD67-41" value="Data Crawling" style="text;html=1;strokeColor=none;fillColor=none;spacingLeft=4;spacingRight=4;whiteSpace=wrap;overflow=hidden;rotatable=0;points=[[0,0.5],[1,0.5]];portConstraint=eastwest;align=center;" parent="eFxH_JPGxiCkRKmAVD67-68" vertex="1">
          <mxGeometry y="28" width="180" height="19" as="geometry" />
        </mxCell>
        <mxCell id="eFxH_JPGxiCkRKmAVD67-72" value="&lt;b&gt;r_compare&lt;/b&gt;" style="swimlane;html=1;fontStyle=0;childLayout=stackLayout;horizontal=1;startSize=26;fillColor=#e0e0e0;horizontalStack=0;resizeParent=1;resizeLast=0;collapsible=1;marginBottom=0;swimlaneFillColor=#ffffff;align=center;rounded=1;shadow=0;comic=0;labelBackgroundColor=none;strokeWidth=1;fontFamily=Verdana;fontSize=12" parent="eFxH_JPGxiCkRKmAVD67-8" vertex="1">
          <mxGeometry x="277" y="79" width="180" height="95" as="geometry" />
        </mxCell>
        <mxCell id="eFxH_JPGxiCkRKmAVD67-73" value="convert Excel into DataFrame&lt;br&gt;&lt;br&gt;Extract standart from models" style="text;html=1;strokeColor=none;fillColor=none;spacingLeft=4;spacingRight=4;whiteSpace=wrap;overflow=hidden;rotatable=0;points=[[0,0.5],[1,0.5]];portConstraint=eastwest;align=center;" parent="eFxH_JPGxiCkRKmAVD67-72" vertex="1">
          <mxGeometry y="26" width="180" height="64" as="geometry" />
        </mxCell>
        <mxCell id="eFxH_JPGxiCkRKmAVD67-88" value="" style="group" parent="eFxH_JPGxiCkRKmAVD67-8" vertex="1" connectable="0">
          <mxGeometry x="490" y="49" width="180" height="60" as="geometry" />
        </mxCell>
        <mxCell id="eFxH_JPGxiCkRKmAVD67-89" style="edgeStyle=orthogonalEdgeStyle;rounded=0;sketch=0;orthogonalLoop=1;jettySize=auto;html=1;exitX=0.25;exitY=1;exitDx=0;exitDy=0;entryX=0.222;entryY=1.158;entryDx=0;entryDy=0;entryPerimeter=0;shadow=0;fillColor=#ffffff;" parent="eFxH_JPGxiCkRKmAVD67-88" source="eFxH_JPGxiCkRKmAVD67-90" edge="1">
          <mxGeometry relative="1" as="geometry">
            <mxPoint x="49.960000000000036" y="50.00199999999995" as="targetPoint" />
          </mxGeometry>
        </mxCell>
        <mxCell id="eFxH_JPGxiCkRKmAVD67-90" value="&lt;b&gt;parsing func&lt;/b&gt;" style="swimlane;html=1;fontStyle=0;childLayout=stackLayout;horizontal=1;startSize=26;fillColor=#e0e0e0;horizontalStack=0;resizeParent=1;resizeLast=0;collapsible=1;marginBottom=0;swimlaneFillColor=#ffffff;align=center;rounded=1;shadow=0;comic=0;labelBackgroundColor=none;strokeWidth=1;fontFamily=Verdana;fontSize=12" parent="eFxH_JPGxiCkRKmAVD67-88" vertex="1">
          <mxGeometry x="10" width="140" height="60" as="geometry" />
        </mxCell>
        <mxCell id="eFxH_JPGxiCkRKmAVD67-91" value="parsing list, dic" style="text;html=1;strokeColor=none;fillColor=none;spacingLeft=4;spacingRight=4;whiteSpace=wrap;overflow=hidden;rotatable=0;points=[[0,0.5],[1,0.5]];portConstraint=eastwest;align=center;" parent="eFxH_JPGxiCkRKmAVD67-90" vertex="1">
          <mxGeometry y="26" width="140" height="19" as="geometry" />
        </mxCell>
        <mxCell id="eFxH_JPGxiCkRKmAVD67-92" value="" style="group" parent="eFxH_JPGxiCkRKmAVD67-8" vertex="1" connectable="0">
          <mxGeometry x="490" y="124" width="180" height="60" as="geometry" />
        </mxCell>
        <mxCell id="eFxH_JPGxiCkRKmAVD67-93" style="edgeStyle=orthogonalEdgeStyle;rounded=0;sketch=0;orthogonalLoop=1;jettySize=auto;html=1;exitX=0.25;exitY=1;exitDx=0;exitDy=0;entryX=0.222;entryY=1.158;entryDx=0;entryDy=0;entryPerimeter=0;shadow=0;fillColor=#ffffff;" parent="eFxH_JPGxiCkRKmAVD67-92" source="eFxH_JPGxiCkRKmAVD67-94" edge="1">
          <mxGeometry relative="1" as="geometry">
            <mxPoint x="49.960000000000036" y="50.00199999999995" as="targetPoint" />
          </mxGeometry>
        </mxCell>
        <mxCell id="eFxH_JPGxiCkRKmAVD67-94" value="&lt;b&gt;Analysis Algorithm&lt;/b&gt;" style="swimlane;html=1;fontStyle=0;childLayout=stackLayout;horizontal=1;startSize=26;fillColor=#e51400;horizontalStack=0;resizeParent=1;resizeLast=0;collapsible=1;marginBottom=0;swimlaneFillColor=#ffffff;align=center;rounded=1;shadow=0;comic=0;labelBackgroundColor=none;strokeWidth=1;fontFamily=Verdana;fontSize=12;strokeColor=#B20000;fontColor=#ffffff;" parent="eFxH_JPGxiCkRKmAVD67-92" vertex="1">
          <mxGeometry x="10" y="1" width="140" height="60" as="geometry" />
        </mxCell>
        <mxCell id="eFxH_JPGxiCkRKmAVD67-102" value="check essential lec" style="text;html=1;strokeColor=none;fillColor=none;spacingLeft=4;spacingRight=4;whiteSpace=wrap;overflow=hidden;rotatable=0;points=[[0,0.5],[1,0.5]];portConstraint=eastwest;align=center;" parent="eFxH_JPGxiCkRKmAVD67-94" vertex="1">
          <mxGeometry y="26" width="140" height="34" as="geometry" />
        </mxCell>
        <mxCell id="eFxH_JPGxiCkRKmAVD67-99" value="" style="endArrow=classic;startArrow=classic;html=1;shadow=0;fillColor=#e51400;entryX=0;entryY=0.5;entryDx=0;entryDy=0;strokeColor=#B20000;" parent="eFxH_JPGxiCkRKmAVD67-8" edge="1">
          <mxGeometry width="50" height="50" relative="1" as="geometry">
            <mxPoint x="460" y="161" as="sourcePoint" />
            <mxPoint x="500" y="160.5" as="targetPoint" />
          </mxGeometry>
        </mxCell>
        <mxCell id="eFxH_JPGxiCkRKmAVD67-100" value="" style="endArrow=classic;startArrow=classic;html=1;shadow=0;fillColor=#ffffff;exitX=1;exitY=0.5;exitDx=0;exitDy=0;entryX=0;entryY=0.5;entryDx=0;entryDy=0;" parent="eFxH_JPGxiCkRKmAVD67-8" source="eFxH_JPGxiCkRKmAVD67-73" target="eFxH_JPGxiCkRKmAVD67-91" edge="1">
          <mxGeometry width="50" height="50" relative="1" as="geometry">
            <mxPoint x="260" y="154" as="sourcePoint" />
            <mxPoint x="310" y="104" as="targetPoint" />
            <Array as="points">
              <mxPoint x="480" y="137" />
              <mxPoint x="480" y="85" />
            </Array>
          </mxGeometry>
        </mxCell>
        <mxCell id="eFxH_JPGxiCkRKmAVD67-106" style="edgeStyle=orthogonalEdgeStyle;rounded=0;sketch=0;orthogonalLoop=1;jettySize=auto;html=1;exitX=1;exitY=0.5;exitDx=0;exitDy=0;entryX=-0.007;entryY=0.289;entryDx=0;entryDy=0;entryPerimeter=0;shadow=0;fillColor=#ffffff;" parent="eFxH_JPGxiCkRKmAVD67-8" source="eFxH_JPGxiCkRKmAVD67-30" target="eFxH_JPGxiCkRKmAVD67-73" edge="1">
          <mxGeometry relative="1" as="geometry" />
        </mxCell>
        <mxCell id="eFxH_JPGxiCkRKmAVD67-107" value="&lt;b&gt;Recommend func&lt;/b&gt;" style="swimlane;html=1;fontStyle=0;childLayout=stackLayout;horizontal=1;startSize=26;fillColor=#e51400;horizontalStack=0;resizeParent=1;resizeLast=0;collapsible=1;marginBottom=0;swimlaneFillColor=#ffffff;align=center;rounded=1;shadow=0;comic=0;labelBackgroundColor=none;strokeWidth=1;fontFamily=Verdana;fontSize=12;strokeColor=#B20000;fontColor=#ffffff;" parent="eFxH_JPGxiCkRKmAVD67-8" vertex="1">
          <mxGeometry x="460" y="218" width="180" height="92" as="geometry" />
        </mxCell>
        <mxCell id="eFxH_JPGxiCkRKmAVD67-110" value="Machine Learning&lt;br&gt;(SVD Algorithm)" style="text;html=1;strokeColor=none;fillColor=none;align=center;verticalAlign=middle;whiteSpace=wrap;rounded=0;" parent="eFxH_JPGxiCkRKmAVD67-107" vertex="1">
          <mxGeometry y="26" width="180" height="64" as="geometry" />
        </mxCell>
        <mxCell id="eFxH_JPGxiCkRKmAVD67-111" value="" style="endArrow=classic;startArrow=classic;html=1;shadow=0;fillColor=#e51400;entryX=0.75;entryY=1;entryDx=0;entryDy=0;exitX=0;exitY=0.5;exitDx=0;exitDy=0;strokeColor=#B20000;" parent="eFxH_JPGxiCkRKmAVD67-8" source="eFxH_JPGxiCkRKmAVD67-110" target="eFxH_JPGxiCkRKmAVD67-72" edge="1">
          <mxGeometry width="50" height="50" relative="1" as="geometry">
            <mxPoint x="260" y="239" as="sourcePoint" />
            <mxPoint x="310" y="189" as="targetPoint" />
            <Array as="points">
              <mxPoint x="412" y="276" />
            </Array>
          </mxGeometry>
        </mxCell>
        <mxCell id="eFxH_JPGxiCkRKmAVD67-31" value="&lt;b&gt;chromediver.exe&lt;/b&gt;" style="rounded=0;whiteSpace=wrap;html=1;" parent="eFxH_JPGxiCkRKmAVD67-3" vertex="1">
          <mxGeometry x="40" y="500" width="120" height="40" as="geometry" />
        </mxCell>
        <mxCell id="eFxH_JPGxiCkRKmAVD67-33" value="" style="endArrow=classic;html=1;exitX=0.5;exitY=1;exitDx=0;exitDy=0;entryX=0.5;entryY=0;entryDx=0;entryDy=0;" parent="eFxH_JPGxiCkRKmAVD67-3" source="eFxH_JPGxiCkRKmAVD67-35" target="eFxH_JPGxiCkRKmAVD67-29" edge="1">
          <mxGeometry width="50" height="50" relative="1" as="geometry">
            <mxPoint x="90" y="99.99999999999989" as="sourcePoint" />
            <mxPoint x="450" y="290" as="targetPoint" />
            <Array as="points">
              <mxPoint x="110" y="120" />
              <mxPoint x="190" y="120" />
            </Array>
          </mxGeometry>
        </mxCell>
        <mxCell id="eFxH_JPGxiCkRKmAVD67-35" value="urls.py" style="swimlane;html=1;startSize=20;" parent="eFxH_JPGxiCkRKmAVD67-3" vertex="1">
          <mxGeometry x="40" y="35" width="140" height="65" as="geometry" />
        </mxCell>
        <mxCell id="eFxH_JPGxiCkRKmAVD67-37" value="Name domain&lt;br&gt;Call view functions" style="text;html=1;align=center;verticalAlign=middle;resizable=0;points=[];autosize=1;" parent="eFxH_JPGxiCkRKmAVD67-35" vertex="1">
          <mxGeometry x="13" y="27" width="110" height="30" as="geometry" />
        </mxCell>
        <mxCell id="eFxH_JPGxiCkRKmAVD67-42" value="" style="endArrow=classic;html=1;entryX=0.5;entryY=0;entryDx=0;entryDy=0;" parent="eFxH_JPGxiCkRKmAVD67-3" target="eFxH_JPGxiCkRKmAVD67-31" edge="1">
          <mxGeometry width="50" height="50" relative="1" as="geometry">
            <mxPoint x="189" y="390" as="sourcePoint" />
            <mxPoint x="450" y="320" as="targetPoint" />
            <Array as="points">
              <mxPoint x="189" y="480" />
              <mxPoint x="100" y="480" />
            </Array>
          </mxGeometry>
        </mxCell>
        <mxCell id="eFxH_JPGxiCkRKmAVD67-55" value="uploaded_media" style="swimlane;html=1;startSize=20;" parent="eFxH_JPGxiCkRKmAVD67-3" vertex="1">
          <mxGeometry x="40" y="590" width="160" height="90" as="geometry" />
        </mxCell>
        <mxCell id="eFxH_JPGxiCkRKmAVD67-56" value="Store User&#39;s Grade&lt;br&gt;Excel File" style="text;html=1;align=center;verticalAlign=middle;resizable=0;points=[];autosize=1;" parent="eFxH_JPGxiCkRKmAVD67-55" vertex="1">
          <mxGeometry x="20" y="40" width="120" height="30" as="geometry" />
        </mxCell>
        <mxCell id="eFxH_JPGxiCkRKmAVD67-79" value="" style="endArrow=classic;html=1;shadow=0;fillColor=#ffffff;exitX=1;exitY=0.5;exitDx=0;exitDy=0;" parent="eFxH_JPGxiCkRKmAVD67-3" edge="1">
          <mxGeometry width="50" height="50" relative="1" as="geometry">
            <mxPoint x="200" y="630" as="sourcePoint" />
            <mxPoint x="370" y="314" as="targetPoint" />
            <Array as="points">
              <mxPoint x="370" y="630" />
              <mxPoint x="370" y="398" />
            </Array>
          </mxGeometry>
        </mxCell>
        <mxCell id="eFxH_JPGxiCkRKmAVD67-84" value="models.py" style="swimlane;html=1;startSize=20;" parent="eFxH_JPGxiCkRKmAVD67-3" vertex="1">
          <mxGeometry x="520" y="540" width="175" height="90" as="geometry" />
        </mxCell>
        <mxCell id="eFxH_JPGxiCkRKmAVD67-85" value="parsing database&lt;br&gt;convert DB into python" style="text;html=1;align=center;verticalAlign=middle;resizable=0;points=[];autosize=1;" parent="eFxH_JPGxiCkRKmAVD67-84" vertex="1">
          <mxGeometry x="16" y="40" width="140" height="30" as="geometry" />
        </mxCell>
        <mxCell id="eFxH_JPGxiCkRKmAVD67-101" value="" style="endArrow=classic;html=1;shadow=0;fillColor=#ffffff;exitX=0;exitY=0.5;exitDx=0;exitDy=0;entryX=0.5;entryY=1;entryDx=0;entryDy=0;" parent="eFxH_JPGxiCkRKmAVD67-3" source="eFxH_JPGxiCkRKmAVD67-84" target="eFxH_JPGxiCkRKmAVD67-72" edge="1">
          <mxGeometry width="50" height="50" relative="1" as="geometry">
            <mxPoint x="510" y="600" as="sourcePoint" />
            <mxPoint x="430" y="460" as="targetPoint" />
            <Array as="points">
              <mxPoint x="407" y="585" />
            </Array>
          </mxGeometry>
        </mxCell>
        <mxCell id="eFxH_JPGxiCkRKmAVD67-12" value="&lt;b style=&quot;font-size: 15px&quot;&gt;Databse(MySQL)&lt;br&gt;&lt;br&gt;graduate_help&lt;/b&gt;" style="shape=cylinder3;whiteSpace=wrap;html=1;boundedLbl=1;backgroundOutline=1;size=15;" parent="1" vertex="1">
          <mxGeometry x="2310" y="420" width="200" height="290" as="geometry" />
        </mxCell>
        <mxCell id="eFxH_JPGxiCkRKmAVD67-23" value="Reference Web" style="swimlane;html=1;startSize=20;" parent="1" vertex="1">
          <mxGeometry x="1280" y="470" width="200" height="330" as="geometry" />
        </mxCell>
        <mxCell id="eFxH_JPGxiCkRKmAVD67-24" value="고전독서&lt;br&gt;인증센터" style="shape=note;whiteSpace=wrap;html=1;backgroundOutline=1;darkOpacity=0.05;" parent="eFxH_JPGxiCkRKmAVD67-23" vertex="1">
          <mxGeometry x="60" y="56" width="80" height="100" as="geometry" />
        </mxCell>
        <mxCell id="eFxH_JPGxiCkRKmAVD67-25" value="uis" style="shape=note;whiteSpace=wrap;html=1;backgroundOutline=1;darkOpacity=0.05;" parent="eFxH_JPGxiCkRKmAVD67-23" vertex="1">
          <mxGeometry x="60" y="196" width="80" height="100" as="geometry" />
        </mxCell>
        <mxCell id="eFxH_JPGxiCkRKmAVD67-53" value="" style="endArrow=classic;html=1;entryX=0;entryY=0.5;entryDx=0;entryDy=0;" parent="1" target="eFxH_JPGxiCkRKmAVD67-55" edge="1">
          <mxGeometry relative="1" as="geometry">
            <mxPoint x="1420" y="715" as="sourcePoint" />
            <mxPoint x="1550" y="732" as="targetPoint" />
          </mxGeometry>
        </mxCell>
        <mxCell id="eFxH_JPGxiCkRKmAVD67-54" value="Excel File" style="edgeLabel;resizable=0;html=1;align=center;verticalAlign=middle;fontStyle=1" parent="eFxH_JPGxiCkRKmAVD67-53" connectable="0" vertex="1">
          <mxGeometry relative="1" as="geometry" />
        </mxCell>
        <mxCell id="eFxH_JPGxiCkRKmAVD67-45" value="" style="shape=flexArrow;endArrow=classic;html=1;exitX=0;exitY=0.5;exitDx=0;exitDy=0;shadow=0;sketch=0;fillColor=#ffffff;" parent="1" source="eFxH_JPGxiCkRKmAVD67-31" edge="1">
          <mxGeometry width="50" height="50" relative="1" as="geometry">
            <mxPoint x="1920" y="690" as="sourcePoint" />
            <mxPoint x="1480" y="600" as="targetPoint" />
          </mxGeometry>
        </mxCell>
        <mxCell id="eFxH_JPGxiCkRKmAVD67-61" value="" style="endArrow=classic;html=1;shadow=0;fillColor=#ffffff;exitX=0;exitY=0;exitDx=80;exitDy=65;exitPerimeter=0;entryX=0;entryY=0.5;entryDx=0;entryDy=0;" parent="1" source="eFxH_JPGxiCkRKmAVD67-1" target="eFxH_JPGxiCkRKmAVD67-35" edge="1">
          <mxGeometry relative="1" as="geometry">
            <mxPoint x="1730" y="240" as="sourcePoint" />
            <mxPoint x="1830" y="240" as="targetPoint" />
            <Array as="points">
              <mxPoint x="1450" y="205" />
              <mxPoint x="1450" y="150" />
            </Array>
          </mxGeometry>
        </mxCell>
        <mxCell id="eFxH_JPGxiCkRKmAVD67-62" value="User&#39;s ID/PW" style="edgeLabel;resizable=0;html=1;align=center;verticalAlign=middle;fontStyle=1" parent="eFxH_JPGxiCkRKmAVD67-61" connectable="0" vertex="1">
          <mxGeometry relative="1" as="geometry" />
        </mxCell>
        <mxCell id="eFxH_JPGxiCkRKmAVD67-64" value="" style="endArrow=classic;html=1;shadow=0;fillColor=#ffffff;exitX=1.008;exitY=0.435;exitDx=0;exitDy=0;exitPerimeter=0;entryX=0;entryY=0.5;entryDx=0;entryDy=0;" parent="1" source="eFxH_JPGxiCkRKmAVD67-24" target="eFxH_JPGxiCkRKmAVD67-30" edge="1">
          <mxGeometry relative="1" as="geometry">
            <mxPoint x="1730" y="480" as="sourcePoint" />
            <mxPoint x="1830" y="480" as="targetPoint" />
            <Array as="points">
              <mxPoint x="1500" y="569" />
              <mxPoint x="1500" y="343" />
            </Array>
          </mxGeometry>
        </mxCell>
        <mxCell id="eFxH_JPGxiCkRKmAVD67-65" value="User&#39;s info" style="edgeLabel;resizable=0;html=1;align=center;verticalAlign=middle;fontStyle=1" parent="eFxH_JPGxiCkRKmAVD67-64" connectable="0" vertex="1">
          <mxGeometry relative="1" as="geometry" />
        </mxCell>
        <mxCell id="eFxH_JPGxiCkRKmAVD67-83" value="" style="shape=flexArrow;endArrow=classic;startArrow=classic;html=1;shadow=0;fillColor=#ffffff;entryX=0.002;entryY=0.831;entryDx=0;entryDy=0;entryPerimeter=0;" parent="1" target="eFxH_JPGxiCkRKmAVD67-12" edge="1">
          <mxGeometry width="50" height="50" relative="1" as="geometry">
            <mxPoint x="2210" y="661" as="sourcePoint" />
            <mxPoint x="1650" y="380" as="targetPoint" />
          </mxGeometry>
        </mxCell>
        <mxCell id="eFxH_JPGxiCkRKmAVD67-114" value="" style="endArrow=classic;html=1;shadow=0;fillColor=#ffffff;entryX=0.988;entryY=0.52;entryDx=0;entryDy=0;entryPerimeter=0;" parent="1" edge="1">
          <mxGeometry relative="1" as="geometry">
            <mxPoint x="1560.96" y="315" as="sourcePoint" />
            <mxPoint x="1420" y="315" as="targetPoint" />
          </mxGeometry>
        </mxCell>
        <mxCell id="eFxH_JPGxiCkRKmAVD67-115" value="output" style="edgeLabel;resizable=0;html=1;align=center;verticalAlign=middle;" parent="eFxH_JPGxiCkRKmAVD67-114" connectable="0" vertex="1">
          <mxGeometry relative="1" as="geometry" />
        </mxCell>
      </root>
    </mxGraphModel>
  </diagram>
</mxfile>
